<?xml version="1.0" encoding="utf-8"?>
<!-- Generator: Adobe Illustrator 22.1.0, SVG Export Plug-In . SVG Version: 6.00 Build 0)  -->
<svg version="1.1" id="Layer_1" xmlns="http://www.w3.org/2000/svg" xmlns:xlink="http://www.w3.org/1999/xlink" x="0px" y="0px"
	 viewBox="0 0 2500 800" style="enable-background:new 0 0 2500 800;" xml:space="preserve">
<style type="text/css">
	.st0{fill:#FFFFFF;}
</style>
<g>
	<path class="st0" d="M254,144.7H81.1V0.2H0v370.1h81.1V217H254v153.3h81.1V0.2H254V144.7z M2015.9,21.3
		c-17,17.4-17.7,42.8-18.2,57.6v291.3h81V252.2h172.1v118.1h81.4V0.2h-252.9C2055.3,0.5,2032.8,3.9,2015.9,21.3z M2099.4,72.5h151.4
		V180h-172.1V93.7c0.3-4.2-0.5-12,3.1-16.5C2085.7,72.4,2091.8,72.7,2099.4,72.5L2099.4,72.5z M1442,0.2h-253.3v370.1h81.1V72.5
		h152.1c7.6,0.2,13.8-0.2,17.5,4.6c3.6,4.6,2.9,12.3,3.2,16.5v276.6h81.1V79c-0.5-14.8-1.1-40.2-18-57.6
		C1488.6,3.9,1466.2,0.5,1442,0.2z M1035.7,276.8c-0.3,4.3,0.4,11.9-3.1,16.5c-3.8,4.9-10,4.4-17.5,4.6H863V0.2h-81.2v370.1h253.4
		c24.1-0.2,46.6-3.8,63.5-21.2c17-17.4,17.7-42.8,18.1-57.6V0.2h-81.1L1035.7,276.8L1035.7,276.8z M1930.4,79
		c-0.4-14.8-1.1-40.2-18-57.6c-17-17.4-39.5-20.9-63.5-21.1h-253.3v370.1h253.3c24.1-0.2,46.6-3.8,63.5-21.2
		c16.9-17.4,17.6-42.8,18-57.6L1930.4,79z M1849.6,276.8c-0.3,4.3,0.5,11.9-3.1,16.5c-3.8,4.9-10,4.4-17.6,4.6h-152.3V72.5h152.3
		c7.5,0.2,13.8-0.2,17.6,4.6c3.5,4.6,2.8,12.3,3.1,16.5V276.8z M558.5,162.1L460.1,0.2h-96.4l151.4,233.3v136.8h86.6V233.5
		L753.2,0.2h-96.4L558.5,162.1z M2413.5,0.2h86.5v370.1h-86.5V0.2z M0,467.1h2500v55.7H0V467.1z M1625.6,743.9
		c8-0.9,15.2-3.3,21-9.3c7.9-8,8.3-19.8,8.4-26.7v-44c-0.2-6.8-0.5-18.6-8.4-26.7c-7.8-8-18.2-9.7-29.3-9.8h-117.8v172.2h38.1v-55.4
		h48.1l37.1,55.4h40.2L1625.6,743.9z M1619.3,701.4c-0.2,1.8-0.4,3.6-1.4,5c-1.8,2.2-4.6,2.1-8.1,2.1h-72.1v-45.1h72.1
		c3.5,0.1,6.4-0.1,8.1,2.2c1,1.3,1.2,3.3,1.4,4.9V701.4z M1165,743.9c8-0.9,15.2-3.3,21.1-9.3c7.9-8,8.3-19.8,8.4-26.7v-44
		c-0.2-6.8-0.5-18.6-8.4-26.7c-7.8-8-18.2-9.7-29.4-9.8h-117.7v172.2h38v-55.4h48.1l37.1,55.4h40.1L1165,743.9z M1158.6,701.4
		c-0.1,1.8-0.3,3.6-1.4,5c-1.8,2.2-4.6,2.1-8.1,2.1H1077v-45.1h72.1c3.5,0.1,6.4-0.1,8.1,2.2c1,1.3,1.2,3.3,1.4,4.9V701.4z
		 M672.6,627.5v37.7h58.8v134.5h37.7V665.2H828v-37.7H672.6z M279.4,627.5v172.2h37.7v-109l36.9,109h33.3l36.9-109v109h37.7V627.5
		h-50l-41.2,121.3l-41.2-121.3H279.4z M2065.4,799.8h37.7v-49.4h79.7c11.2-0.1,21.6-1.7,29.4-9.8c7.9-8.1,8.3-19.8,8.5-26.6v-50
		c-0.2-6.9-0.6-18.6-8.5-26.7c-7.8-8-18.2-9.7-29.4-9.8h-117.4V799.8z M2184.7,707.4c-0.1,1.7-0.3,3.6-1.3,5
		c-1.8,2.2-4.6,2.1-8.2,2.1H2103v-51.1h72.2c3.5,0.1,6.4-0.1,8.2,2.2c1,1.3,1.2,3.2,1.3,4.9V707.4z M1350,667.4
		c1.7-2.2,4.6-2.1,8-2.1h108.4v-37.7h-117.7c-11.2,0.1-21.5,1.8-29.4,9.8c-7.9,8.1-8.2,19.8-8.3,26.6v99.3
		c0.2,6.9,0.5,18.6,8.3,26.7c7.9,8,18.3,9.7,29.4,9.8h79.9c11.2-0.1,21.6-1.8,29.4-9.8c7.8-8,8.2-19.8,8.4-26.7v-66.8h-81.3v33.6
		h43.5v24.7c-0.1,1.8-0.3,3.7-1.4,5c-1.7,2.2-4.6,2.1-8.1,2.1H1358c-3.5-0.1-6.3,0.1-8-2.2c-1.1-1.3-1.3-3.2-1.4-5v-82.6
		C1348.6,670.6,1348.9,668.7,1350,667.4z M1994.6,756.4c-0.1,2,0.2,5.5-1.4,7.7c-1.8,2.2-4.7,2.1-8.2,2.1h-70.6V627.5h-37.7v172.2
		h117.7c11.2-0.1,21.6-1.7,29.5-9.8c7.9-8.1,8.2-19.9,8.3-26.8V627.5h-37.6L1994.6,756.4L1994.6,756.4z M1836.3,637.3
		c-7.8-8-18.3-9.7-29.4-9.8h-79.9c-11.1,0.1-21.5,1.8-29.4,9.8c-7.9,8.1-8.2,19.8-8.4,26.7v99.3c0.2,6.9,0.5,18.6,8.4,26.7
		c7.9,8,18.3,9.7,29.4,9.8h79.9c11.1-0.1,21.6-1.8,29.4-9.8c7.9-8,8.3-19.8,8.4-26.7V664C1844.5,657.1,1844.2,645.4,1836.3,637.3z
		 M1807,754.9c-0.1,1.8-0.3,3.7-1.3,5c-1.8,2.2-4.6,2.1-8.1,2.1h-61.2c-3.5-0.1-6.4,0.1-8.1-2.1c-1.1-1.3-1.3-3.2-1.4-5v-82.6
		c0.1-1.7,0.3-3.6,1.4-5c1.7-2.2,4.6-2,8.1-2.2h61.2c3.5,0.1,6.3,0,8.1,2.2c1,1.3,1.2,3.2,1.3,5V754.9z M998.2,637.3
		c-7.8-8-18.3-9.7-29.4-9.8h-80c-11.1,0.1-21.5,1.8-29.4,9.8c-7.9,8.1-8.2,19.8-8.4,26.7v99.3c0.2,6.9,0.5,18.6,8.4,26.7
		c7.9,8,18.3,9.7,29.4,9.8h80c11.1-0.1,21.6-1.8,29.4-9.8c7.9-8,8.2-19.8,8.4-26.7V664C1006.4,657.1,1006.1,645.4,998.2,637.3z
		 M968.9,754.9c0,1.8-0.3,3.7-1.3,5c-1.7,2.2-4.6,2.1-8.1,2.1h-61.2c-3.5-0.1-6.3,0.1-8.1-2.1c-1.1-1.3-1.3-3.2-1.4-5v-82.6
		c0.1-1.7,0.4-3.6,1.4-5c1.7-2.2,4.6-2,8.1-2.2h61.2c3.5,0.1,6.4,0,8.1,2.2c1.1,1.3,1.3,3.2,1.3,5V754.9z M641.1,637.3
		c-7.8-8-18.2-9.7-29.4-9.8h-79.9c-11.2,0.1-21.6,1.8-29.4,9.8c-7.9,8.1-8.2,19.8-8.4,26.7v99.3c0.2,6.9,0.6,18.6,8.4,26.7
		c7.8,8,18.2,9.7,29.4,9.8h79.9c11.1-0.1,21.6-1.8,29.4-9.8c7.9-8,8.2-19.8,8.4-26.7V664C649.3,657.1,649,645.4,641.1,637.3z
		 M611.8,754.9c-0.1,1.8-0.2,3.7-1.3,5c-1.7,2.2-4.6,2.1-8.1,2.1h-61.2c-3.5-0.1-6.4,0.1-8.1-2.1c-1.1-1.3-1.3-3.2-1.4-5v-82.6
		c0.1-1.7,0.4-3.6,1.4-5c1.7-2.2,4.6-2,8.1-2.2h61.2c3.5,0.1,6.4,0,8.1,2.2c1.1,1.3,1.3,3.2,1.3,5V754.9z"/>
</g>
</svg>
